<?xml version="1.0" encoding="utf-8"?>
<!-- Generator: Adobe Illustrator 26.1.0, SVG Export Plug-In . SVG Version: 6.00 Build 0)  -->
<svg version="1.1" id="Layer_1" xmlns="http://www.w3.org/2000/svg" xmlns:xlink="http://www.w3.org/1999/xlink" x="0px" y="0px"
	 viewBox="0 0 1920 1080" style="enable-background:new 0 0 1920 1080;" xml:space="preserve">
<style type="text/css">
	.st0{fill:url(#SVGID_1_);}
	.st1{fill:url(#SVGID_00000026873578199304194730000018106175985385255836_);}
	.st2{fill:url(#SVGID_00000038402071132211783510000003481733579201646242_);}
	.st3{fill:url(#SVGID_00000179619809595436557900000008484949386573039496_);}
	.st4{fill:url(#SVGID_00000031194126807477077410000003201448850561368751_);}
	.st5{fill:url(#SVGID_00000049213857195898611820000005597260623838378125_);}
	.st6{fill:url(#SVGID_00000054245775896224051930000012555676456074233004_);}
	.st7{fill:url(#SVGID_00000084525741683206272990000014396696490424944021_);}
	.st8{fill:url(#SVGID_00000096029442913532716030000004654175044997740952_);}
	.st9{fill:url(#SVGID_00000124155954791802798930000000890389216011872164_);}
	.st10{fill:url(#SVGID_00000067924903819532533710000008959699217838838433_);}
	.st11{fill:url(#SVGID_00000004518397334672550150000002674305382330447748_);}
	.st12{fill:url(#SVGID_00000145043824911196964890000006093752214124703912_);}
	.st13{fill:url(#SVGID_00000036239982783728521270000008975582482252064191_);}
	.st14{fill:url(#SVGID_00000138551925521978840400000014720833301446589887_);}
	.st15{fill:url(#SVGID_00000111188712940194167840000001077686628502856855_);}
</style>
<g>
	<g>
		<g>
			<linearGradient id="SVGID_1_" gradientUnits="userSpaceOnUse" x1="842.9469" y1="276.4752" x2="842.9469" y2="489.4713">
				<stop  offset="0" style="stop-color:#AD1F62"/>
				<stop  offset="1" style="stop-color:#CD1D64"/>
			</linearGradient>
			<path class="st0" d="M851.05,449.9c15.34,0.35,24.89,8.66,30.8,19.76V276.48h-77.8v213C814.82,468.21,830.24,449.43,851.05,449.9
				z"/>
			
				<linearGradient id="SVGID_00000046338658571867609580000018404026700356711312_" gradientUnits="userSpaceOnUse" x1="927.0192" y1="519.3965" x2="1120.7871" y2="519.3965">
				<stop  offset="0" style="stop-color:#489ED7"/>
				<stop  offset="1" style="stop-color:#4185C5"/>
			</linearGradient>
			<path style="fill:url(#SVGID_00000046338658571867609580000018404026700356711312_);" d="M1120.79,560.24
				c-4.26-11.23-9.86-21.85-16.61-31.7c-9.28-10.88-18.6-19.18-27.73-25.41c-27.43-18.72-53.14-18.69-71.06-13.32
				c-10.27,3.08-17.98,7.91-21.97,11.97c-13.27,13.5-27.55,17.83-41.06,8.1c-4.18-3.01-5.36-7.15-4.99-11.44
				c0.81-9.58,9.31-19.89,9.31-19.89c-5.72,4.29-12.1,13.09-16.44,23.9c-1.27,3.17-2.37,6.51-3.22,9.95c0,0,1.83,45.57,36.41,47.73
				c34.58,2.16,42.68-22.46,50.25-37.43c3.52-6.97,11.44-17.43,26.15-18.18c8.3-0.42,18.75,2.25,31.79,10.39
				C1085.09,523.3,1101.32,537.55,1120.79,560.24z"/>
			
				<linearGradient id="SVGID_00000103981491107584710350000003478397205752844220_" gradientUnits="userSpaceOnUse" x1="937.3035" y1="496.1942" x2="1104.1794" y2="496.1942">
				<stop  offset="0" style="stop-color:#61C6F1"/>
				<stop  offset="1" style="stop-color:#2FADD6"/>
			</linearGradient>
			<path style="fill:url(#SVGID_00000103981491107584710350000003478397205752844220_);" d="M1078.07,499.17
				c-16.73-14.68-36.72-26.09-58.82-33.13c-24.12-5.47-55.29-0.46-72.57,12.5c0,0-8.51,10.31-9.31,19.89
				c-0.36,4.29,0.82,8.43,4.99,11.44c13.51,9.73,27.79,5.39,41.06-8.1c3.99-4.06,11.7-8.89,21.97-11.97
				c17.91-5.37,43.63-5.39,71.06,13.32c9.13,6.23,18.45,14.53,27.73,25.41C1096.78,517.74,1088,507.88,1078.07,499.17z"/>
			
				<linearGradient id="SVGID_00000078036037918946511790000001396642979457220992_" gradientUnits="userSpaceOnUse" x1="932.084" y1="675.0632" x2="1119.1268" y2="675.0632">
				<stop  offset="0" style="stop-color:#5DC0A0"/>
				<stop  offset="1" style="stop-color:#00AAC1"/>
			</linearGradient>
			<path style="fill:url(#SVGID_00000078036037918946511790000001396642979457220992_);" d="M1100.66,588.99
				c-10.27-0.31-17.95,21.47-17.95,21.47c-9.85,45.78-50.56,80.1-99.29,80.1c-4.65,0-9.23-0.32-13.71-0.92
				c0,0-37.07-3.09-37.61,20.14c-0.54,23.23,23.79,51.93,79.97,51.36c47.54-12.84,86.21-45.59,105.33-88.11
				C1123.85,626.55,1110.92,589.3,1100.66,588.99z"/>
			
				<linearGradient id="SVGID_00000069380202011355517680000018104765636970088618_" gradientUnits="userSpaceOnUse" x1="1111.9075" y1="582.5041" x2="1116.3124" y2="582.5041">
				<stop  offset="0" style="stop-color:#5DC0A0"/>
				<stop  offset="1" style="stop-color:#00AAC1"/>
			</linearGradient>
			<path style="fill:url(#SVGID_00000069380202011355517680000018104765636970088618_);" d="M1116.31,589.37
				c-0.89-4.82-2.42-9.4-4.4-13.73C1113.46,579.79,1114.94,584.35,1116.31,589.37z"/>
			
				<linearGradient id="SVGID_00000034088449556876132580000014037844612005435779_" gradientUnits="userSpaceOnUse" x1="925.0351" y1="577.8978" x2="1130.3746" y2="577.8978">
				<stop  offset="0" style="stop-color:#489ED7"/>
				<stop  offset="1" style="stop-color:#3367B1"/>
			</linearGradient>
			<path style="fill:url(#SVGID_00000034088449556876132580000014037844612005435779_);" d="M1125.61,575.36
				c-1.34-5.15-2.95-10.19-4.82-15.12c-19.47-22.7-35.7-36.94-49.17-45.35c-13.04-8.14-23.5-10.81-31.79-10.39
				c-14.7,0.75-22.62,11.21-26.15,18.18c-7.56,14.97-15.67,39.6-50.25,37.43c-34.58-2.16-36.41-47.73-36.41-47.73
				c-5.04,20.33-1.66,44.48,23.98,59.61c44.84,26.47,71.86-8.1,83.2-32.96c11.35-24.85,31.46-9.67,31.46-9.67s3,1.59,7.54,4.58
				c10.57,6.97,29.51,21.58,38.7,41.67c1.98,4.33,3.51,8.91,4.4,13.73c4.31,15.78,7.56,36.01,8.87,61.96
				c3.39-12.4,5.19-25.4,5.19-38.8C1130.37,599.71,1128.72,587.27,1125.61,575.36z"/>
			
				<linearGradient id="SVGID_00000144302839420099896040000016784802063374898586_" gradientUnits="userSpaceOnUse" x1="1095.4241" y1="673.0225" x2="1095.4241" y2="529.3817">
				<stop  offset="0.3799" style="stop-color:#3C85B4"/>
				<stop  offset="1" style="stop-color:#082651"/>
			</linearGradient>
			<path style="fill:url(#SVGID_00000144302839420099896040000016784802063374898586_);" d="M1125.18,651.33
				c-1.31-25.95-4.56-46.19-8.87-61.96c-1.37-5.01-2.85-9.57-4.4-13.73c-9.19-20.1-28.14-34.71-38.7-41.67
				c-4.54-3-7.54-4.58-7.54-4.58c1.04,1.43,2.04,2.88,3,4.36c7.81,12.03,13.14,25.81,15.28,40.62c0.69,4.78,1.05,9.66,1.05,14.62
				c0,7.37-0.79,14.55-2.28,21.47c0,0,7.68-21.78,17.95-21.47c10.26,0.31,23.19,37.57,16.73,84.04
				C1120.53,666.04,1123.15,658.8,1125.18,651.33z"/>
			
				<linearGradient id="SVGID_00000157993399378468106320000018129335808143556795_" gradientUnits="userSpaceOnUse" x1="884.3292" y1="689.7302" x2="1012.0581" y2="689.7302">
				<stop  offset="0" style="stop-color:#489980"/>
				<stop  offset="1" style="stop-color:#00AAC1"/>
			</linearGradient>
			<path style="fill:url(#SVGID_00000157993399378468106320000018129335808143556795_);" d="M986.04,762.91
				c0.29,0.03,0.58,0.06,0.87,0.1c0.58,0.06,1.16,0.12,1.75,0.18c0.39,0.04,0.79,0.07,1.18,0.11c0.52,0.05,1.03,0.09,1.55,0.13
				c0.49,0.04,0.98,0.07,1.47,0.11c0.45,0.03,0.9,0.07,1.36,0.1c0.6,0.04,1.21,0.07,1.83,0.1c0.36,0.02,0.71,0.04,1.08,0.06
				c0.98,0.05,1.97,0.09,2.97,0.12c4.05-0.78,8.04-1.71,11.97-2.77c-56.18,0.57-80.51-28.13-79.97-51.36
				c0.54-23.23,37.61-20.14,37.61-20.14c-39.6-5.34-71.96-33.51-83.41-70.82c-0.33-1.08-0.64-2.17-0.94-3.26
				c-0.02,0.18-18.13,132.03,98.23,147.06c0.15,0.02,0.3,0.04,0.46,0.06C984.71,762.75,985.37,762.83,986.04,762.91z"/>
			
				<linearGradient id="SVGID_00000182486397181719084730000003086251216585535882_" gradientUnits="userSpaceOnUse" x1="909.3298" y1="767.0471" x2="909.3298" y2="568.225">
				<stop  offset="0" style="stop-color:#EEE780"/>
				<stop  offset="1" style="stop-color:#F9A762"/>
			</linearGradient>
			<path style="fill:url(#SVGID_00000182486397181719084730000003086251216585535882_);" d="M885.36,615.55
				C885.36,615.55,885.36,615.55,885.36,615.55c-0.34-1.27-0.66-2.54-0.95-3.82c-1.67-7.31-2.56-14.93-2.56-22.75v-20.76
				c0,0-2.34,9.68-4.69,22.18c-0.57,3.02-1.14,6.2-1.68,9.46c-1.24,7.5-2.31,15.36-2.82,22.39c-1.62,22.69-32.96,19.45-43.76-3.78
				c-10.8-23.23-15.36,33.93-2.56,72.06c28.32,45.77,80.8,76.52,140.87,76.52c11.26,0,22.26-1.08,32.87-3.14
				C865.56,759.69,885.34,615.73,885.36,615.55z"/>
			<g>
				
					<linearGradient id="SVGID_00000067939590448886006610000013223731209964541843_" gradientUnits="userSpaceOnUse" x1="885.3625" y1="615.551" x2="885.3625" y2="615.5464">
					<stop  offset="0" style="stop-color:#F16B3F"/>
					<stop  offset="0.2241" style="stop-color:#F06245"/>
					<stop  offset="0.5884" style="stop-color:#EF4A56"/>
					<stop  offset="1" style="stop-color:#ED276F"/>
				</linearGradient>
				<polygon style="fill:url(#SVGID_00000067939590448886006610000013223731209964541843_);" points="885.36,615.55 885.36,615.55 
					885.36,615.55 				"/>
				
					<linearGradient id="SVGID_00000098929262993167484160000018160327961880828318_" gradientUnits="userSpaceOnUse" x1="842.947" y1="690.5265" x2="842.947" y2="449.8955">
					<stop  offset="0" style="stop-color:#F16B3F"/>
					<stop  offset="0.2241" style="stop-color:#F06245"/>
					<stop  offset="0.5884" style="stop-color:#EF4A56"/>
					<stop  offset="1" style="stop-color:#ED276F"/>
				</linearGradient>
				<path style="fill:url(#SVGID_00000098929262993167484160000018160327961880828318_);" d="M851.05,449.9
					c-20.81-0.47-36.23,18.3-47,39.57v89.55v0v33.51c0-12.86,0-12.86,0,0c0,28.45,8.13,55.1,22.3,78
					c-12.8-38.13-8.24-95.28,2.56-72.06c10.81,23.23,42.14,26.47,43.76,3.78c0.5-7.03,1.57-14.89,2.82-22.39v0
					c0.54-3.25,1.11-6.44,1.68-9.46v0c2.35-12.5,4.69-22.18,4.69-22.18v-87.4v-11.16C875.94,458.57,866.39,450.25,851.05,449.9z"/>
			</g>
		</g>
		<g>
			
				<linearGradient id="SVGID_00000052081366631513955610000017452262323708932490_" gradientUnits="userSpaceOnUse" x1="911.5519" y1="697.602" x2="911.5519" y2="251.7088">
				<stop  offset="0" style="stop-color:#F16B3F"/>
				<stop  offset="0.2241" style="stop-color:#F06245"/>
				<stop  offset="0.5884" style="stop-color:#EF4A56"/>
				<stop  offset="1" style="stop-color:#ED276F"/>
			</linearGradient>
			<path style="fill:url(#SVGID_00000052081366631513955610000017452262323708932490_);" d="M909.8,254.51
				c1.16-0.05,2.33-0.09,3.51-0.13c-1,0.03-1.99,0.06-2.97,0.1C910.15,254.5,909.98,254.51,909.8,254.51z"/>
			
				<linearGradient id="SVGID_00000174574690015841952370000016053881606504988071_" gradientUnits="userSpaceOnUse" x1="907.7442" y1="697.602" x2="907.7442" y2="251.7088">
				<stop  offset="0" style="stop-color:#F16B3F"/>
				<stop  offset="0.2241" style="stop-color:#F06245"/>
				<stop  offset="0.5884" style="stop-color:#EF4A56"/>
				<stop  offset="1" style="stop-color:#ED276F"/>
			</linearGradient>
			<path style="fill:url(#SVGID_00000174574690015841952370000016053881606504988071_);" d="M907.43,254.63
				c-0.46,0.02-0.91,0.05-1.36,0.08c1.1-0.07,2.22-0.13,3.34-0.18c-0.05,0-0.11,0-0.16,0.01
				C908.65,254.57,908.04,254.6,907.43,254.63z"/>
			
				<linearGradient id="SVGID_00000064323493182291129090000013361615780349439391_" gradientUnits="userSpaceOnUse" x1="895.831" y1="697.602" x2="895.831" y2="251.7088">
				<stop  offset="0" style="stop-color:#F16B3F"/>
				<stop  offset="0.2241" style="stop-color:#F06245"/>
				<stop  offset="0.5884" style="stop-color:#EF4A56"/>
				<stop  offset="1" style="stop-color:#ED276F"/>
			</linearGradient>
			<path style="fill:url(#SVGID_00000064323493182291129090000013361615780349439391_);" d="M896.81,255.5
				c-0.72,0.08-1.42,0.18-2.13,0.26c0.77-0.09,1.52-0.2,2.3-0.28C896.93,255.49,896.87,255.49,896.81,255.5z"/>
			
				<linearGradient id="SVGID_00000062898136756748646780000008726683702199848115_" gradientUnits="userSpaceOnUse" x1="923.8207" y1="697.602" x2="923.8207" y2="251.7088">
				<stop  offset="0" style="stop-color:#F16B3F"/>
				<stop  offset="0.2241" style="stop-color:#F06245"/>
				<stop  offset="0.5884" style="stop-color:#EF4A56"/>
				<stop  offset="1" style="stop-color:#ED276F"/>
			</linearGradient>
			<path style="fill:url(#SVGID_00000062898136756748646780000008726683702199848115_);" d="M1038.4,350.54
				c-2.04-6.37-4.65-12.56-7.79-18.52c-19.12-36.32-57.8-64.29-105.33-75.25c-3.93-0.91-7.92-1.7-11.97-2.37
				c-1.18,0.03-2.35,0.07-3.51,0.13c-0.13,0.01-0.26,0.01-0.38,0.02c-1.12,0.05-2.24,0.11-3.34,0.18c0.45-0.03,0.9-0.06,1.36-0.08
				c0.6-0.03,1.21-0.06,1.83-0.09c0.05,0,0.11,0,0.16-0.01c0.13-0.01,0.25-0.01,0.38-0.02c0.18-0.01,0.36-0.02,0.53-0.02
				c0.98-0.04,1.97-0.07,2.97-0.1c-10.62-1.76-21.61-2.68-32.87-2.68c-27.6,0-53.6,5.55-76.38,15.33v56.04
				c4.15-12.33,10.78-24.94,21.27-35.93c0.02-0.02,0.03-0.04,0.05-0.05c0.63-0.66,1.27-1.31,1.93-1.95c0.05-0.05,0.1-0.1,0.15-0.15
				c0.64-0.62,1.29-1.24,1.95-1.85c0.07-0.07,0.14-0.14,0.22-0.21c0.64-0.58,1.29-1.16,1.96-1.73c0.11-0.09,0.21-0.19,0.32-0.28
				c0.64-0.54,1.29-1.08,1.95-1.61c0.14-0.12,0.28-0.23,0.42-0.35c0.64-0.51,1.29-1,1.95-1.5c0.18-0.14,0.35-0.27,0.53-0.41
				c0.64-0.47,1.29-0.94,1.95-1.4c0.21-0.15,0.42-0.3,0.63-0.45c0.63-0.44,1.28-0.86,1.93-1.29c0.26-0.17,0.5-0.34,0.76-0.51
				c0.64-0.41,1.29-0.81,1.94-1.2c0.29-0.18,0.57-0.36,0.86-0.53c0.64-0.38,1.3-0.75,1.96-1.12c0.32-0.18,0.63-0.37,0.96-0.55
				c0.64-0.35,1.31-0.7,1.97-1.04c0.36-0.19,0.7-0.38,1.06-0.56c0.65-0.33,1.31-0.64,1.97-0.96c0.39-0.19,0.78-0.38,1.17-0.57
				c0.65-0.3,1.32-0.59,1.98-0.89c0.43-0.19,0.85-0.39,1.29-0.57c0.66-0.28,1.34-0.55,2.02-0.82c0.46-0.19,0.91-0.38,1.37-0.56
				c0.67-0.26,1.36-0.51,2.04-0.76c0.49-0.18,0.97-0.37,1.47-0.55c0.67-0.24,1.37-0.46,2.06-0.69c0.53-0.18,1.04-0.36,1.58-0.53
				c0.69-0.22,1.39-0.42,2.09-0.63c0.56-0.17,1.11-0.34,1.67-0.5c0.69-0.2,1.41-0.38,2.12-0.57c0.59-0.16,1.18-0.32,1.78-0.48
				c0.71-0.18,1.44-0.34,2.16-0.51c0.62-0.15,1.24-0.3,1.87-0.44c0.72-0.16,1.46-0.31,2.2-0.46c0.66-0.14,1.3-0.28,1.97-0.41
				c0.74-0.14,1.5-0.27,2.26-0.4c0.68-0.12,1.35-0.25,2.04-0.36c0.76-0.12,1.54-0.23,2.32-0.35c0.71-0.11,1.4-0.22,2.12-0.32
				c0.78-0.11,1.57-0.2,2.36-0.29c0.71-0.09,1.41-0.18,2.13-0.26c0.06-0.01,0.12-0.01,0.17-0.02c-0.78,0.09-1.54,0.19-2.3,0.28
				c-0.79,0.1-1.59,0.19-2.36,0.29c-0.72,0.1-1.41,0.21-2.12,0.32c-0.77,0.12-1.56,0.22-2.32,0.35c-0.69,0.11-1.36,0.24-2.04,0.36
				c-0.75,0.13-1.52,0.26-2.26,0.4c-0.67,0.13-1.31,0.27-1.97,0.41c-0.73,0.15-1.48,0.3-2.2,0.46c-0.63,0.14-1.25,0.3-1.87,0.44
				c-0.72,0.17-1.45,0.33-2.16,0.51c-0.6,0.15-1.18,0.32-1.78,0.48c-0.71,0.19-1.42,0.37-2.12,0.57c-0.57,0.16-1.12,0.34-1.67,0.5
				c-0.7,0.21-1.41,0.41-2.09,0.63c-0.54,0.17-1.05,0.35-1.58,0.53c-0.69,0.23-1.38,0.45-2.06,0.69c-0.5,0.18-0.98,0.36-1.47,0.55
				c-0.68,0.25-1.37,0.5-2.04,0.76c-0.47,0.18-0.91,0.37-1.37,0.56c-0.67,0.27-1.36,0.54-2.02,0.82c-0.44,0.19-0.86,0.38-1.29,0.57
				c-0.66,0.29-1.33,0.58-1.98,0.89c-0.4,0.19-0.78,0.38-1.17,0.57c-0.66,0.32-1.33,0.63-1.97,0.96c-0.36,0.18-0.71,0.38-1.06,0.56
				c-0.66,0.34-1.32,0.69-1.97,1.04c-0.33,0.18-0.64,0.37-0.96,0.55c-0.66,0.37-1.32,0.74-1.96,1.12c-0.29,0.17-0.57,0.35-0.86,0.53
				c-0.65,0.4-1.31,0.8-1.94,1.2c-0.26,0.17-0.5,0.34-0.76,0.51c-0.65,0.43-1.3,0.85-1.93,1.29c-0.22,0.15-0.42,0.3-0.63,0.45
				c-0.66,0.46-1.31,0.93-1.95,1.4c-0.18,0.13-0.35,0.27-0.53,0.41c-0.66,0.5-1.31,0.99-1.95,1.5c-0.14,0.11-0.28,0.23-0.42,0.35
				c-0.66,0.53-1.31,1.07-1.95,1.61c-0.11,0.09-0.21,0.19-0.32,0.28c-0.66,0.57-1.32,1.15-1.96,1.73c-0.07,0.07-0.14,0.14-0.22,0.21
				c-0.66,0.61-1.32,1.23-1.95,1.85c-0.05,0.05-0.1,0.1-0.15,0.15c-0.66,0.65-1.3,1.3-1.93,1.95c-0.02,0.02-0.03,0.04-0.05,0.05
				c-10.49,11-17.13,23.6-21.27,35.94v45.03c14.13-26.71,43.63-46.22,78.88-50.28c4.49-0.52,9.06-0.79,13.71-0.79
				c48.73,0,89.44,29.31,99.29,68.41c1.49,5.91,2.28,12.05,2.28,18.34c0,4.24-0.36,8.41-1.05,12.49
				c-2.03,12.02-6.94,23.23-14.12,33.13c12.75-1.41,26.01-1.13,38.09,1.1c5.1-7,9.43-14.42,12.88-22.17
				c1.87-4.21,3.48-8.52,4.82-12.91c3.1-10.17,4.76-20.8,4.76-31.74C1043.59,372.23,1041.79,361.13,1038.4,350.54z M897.27,255.45
				c0.66-0.07,1.32-0.14,1.99-0.2C898.59,255.31,897.93,255.38,897.27,255.45z M899.52,255.22c0.2-0.02,0.41-0.04,0.61-0.06
				c0.58-0.05,1.16-0.1,1.74-0.15C901.08,255.08,900.3,255.15,899.52,255.22z M903.06,254.92c0.51-0.04,1.03-0.08,1.54-0.11
				C904.09,254.84,903.57,254.88,903.06,254.92z"/>
			
				<linearGradient id="SVGID_00000049913252142703892410000013694840398010079132_" gradientUnits="userSpaceOnUse" x1="900.6962" y1="697.602" x2="900.6962" y2="251.7088">
				<stop  offset="0" style="stop-color:#F16B3F"/>
				<stop  offset="0.2241" style="stop-color:#F06245"/>
				<stop  offset="0.5884" style="stop-color:#EF4A56"/>
				<stop  offset="1" style="stop-color:#ED276F"/>
			</linearGradient>
			<path style="fill:url(#SVGID_00000049913252142703892410000013694840398010079132_);" d="M899.52,255.22
				c0.78-0.07,1.56-0.15,2.35-0.21c-0.58,0.05-1.16,0.1-1.74,0.15C899.93,255.18,899.72,255.2,899.52,255.22z"/>
		</g>
	</g>
</g>
</svg>
